<mxfile modified="2020-01-18T13:18:17.652Z" host="www.draw.io" agent="Mozilla/5.0 (X11; Ubuntu; Linux x86_64; rv:72.0) Gecko/20100101 Firefox/72.0" etag="7V7M-OqC_5DbAAIndDiW" version="12.5.5" type="github">
  <diagram id="Ht1M8jgEwFfnCIfOTk4-" name="Page-1">
    <mxGraphModel dx="1143" dy="747" grid="1" gridSize="10" guides="1" tooltips="1" connect="1" arrows="1" fold="1" page="1" pageScale="1" pageWidth="1169" pageHeight="827" math="0" shadow="0">
      <root>
        <mxCell id="0"/>
        <mxCell id="1" parent="0"/>
        <mxCell id="R89aEMjabt8_ohJxdj---15" value="AWS Cloud" style="points=[[0,0],[0.25,0],[0.5,0],[0.75,0],[1,0],[1,0.25],[1,0.5],[1,0.75],[1,1],[0.75,1],[0.5,1],[0.25,1],[0,1],[0,0.75],[0,0.5],[0,0.25]];outlineConnect=0;gradientColor=none;html=1;whiteSpace=wrap;fontSize=12;fontStyle=0;shape=mxgraph.aws4.group;grIcon=mxgraph.aws4.group_aws_cloud;strokeColor=#232F3E;fillColor=none;verticalAlign=top;align=left;spacingLeft=30;fontColor=#232F3E;dashed=0;" vertex="1" parent="1">
          <mxGeometry x="230" y="210" width="740" height="450" as="geometry"/>
        </mxCell>
        <mxCell id="R89aEMjabt8_ohJxdj---25" value="eu-central-1" style="points=[[0,0],[0.25,0],[0.5,0],[0.75,0],[1,0],[1,0.25],[1,0.5],[1,0.75],[1,1],[0.75,1],[0.5,1],[0.25,1],[0,1],[0,0.75],[0,0.5],[0,0.25]];outlineConnect=0;gradientColor=none;html=1;whiteSpace=wrap;fontSize=12;fontStyle=0;shape=mxgraph.aws4.group;grIcon=mxgraph.aws4.group_region;strokeColor=#147EBA;fillColor=none;verticalAlign=top;align=left;spacingLeft=30;fontColor=#147EBA;dashed=0;labelBackgroundColor=#ffffff;" vertex="1" parent="1">
          <mxGeometry x="370" y="220" width="590" height="430" as="geometry"/>
        </mxCell>
        <mxCell id="R89aEMjabt8_ohJxdj---16" value="gis" style="points=[[0,0],[0.25,0],[0.5,0],[0.75,0],[1,0],[1,0.25],[1,0.5],[1,0.75],[1,1],[0.75,1],[0.5,1],[0.25,1],[0,1],[0,0.75],[0,0.5],[0,0.25]];outlineConnect=0;gradientColor=none;html=1;whiteSpace=wrap;fontSize=12;fontStyle=0;shape=mxgraph.aws4.group;grIcon=mxgraph.aws4.group_vpc;strokeColor=#248814;fillColor=none;verticalAlign=top;align=left;spacingLeft=30;fontColor=#000000;dashed=0;fontFamily=Courier New;" vertex="1" parent="1">
          <mxGeometry x="550" y="350" width="400" height="290" as="geometry"/>
        </mxCell>
        <mxCell id="R89aEMjabt8_ohJxdj---35" value="eu-central-1a" style="fillColor=none;strokeColor=#147EBA;dashed=1;verticalAlign=bottom;fontStyle=0;fontColor=#147EBA;labelBackgroundColor=#ffffff;html=1;fontFamily=Courier New;" vertex="1" parent="1">
          <mxGeometry x="600" y="400" width="340" height="230" as="geometry"/>
        </mxCell>
        <mxCell id="R89aEMjabt8_ohJxdj---38" value="&lt;span id=&quot;CidrBlock&quot; class=&quot;&quot;&gt;&lt;font face=&quot;Courier New&quot;&gt;172.31.16.0/20&lt;/font&gt;&lt;/span&gt;" style="points=[[0,0],[0.25,0],[0.5,0],[0.75,0],[1,0],[1,0.25],[1,0.5],[1,0.75],[1,1],[0.75,1],[0.5,1],[0.25,1],[0,1],[0,0.75],[0,0.5],[0,0.25]];outlineConnect=0;gradientColor=none;html=1;whiteSpace=wrap;fontSize=12;fontStyle=0;shape=mxgraph.aws4.group;grIcon=mxgraph.aws4.group_security_group;grStroke=0;strokeColor=#248814;fillColor=#E9F3E6;verticalAlign=bottom;align=center;spacingLeft=0;fontColor=#248814;dashed=0;labelBackgroundColor=none;labelPosition=center;verticalLabelPosition=middle;" vertex="1" parent="1">
          <mxGeometry x="610" y="410" width="320" height="200" as="geometry"/>
        </mxCell>
        <mxCell id="R89aEMjabt8_ohJxdj---30" value="postgis-server" style="points=[[0,0],[0.25,0],[0.5,0],[0.75,0],[1,0],[1,0.25],[1,0.5],[1,0.75],[1,1],[0.75,1],[0.5,1],[0.25,1],[0,1],[0,0.75],[0,0.5],[0,0.25]];outlineConnect=0;gradientColor=none;html=1;whiteSpace=wrap;fontSize=12;fontStyle=0;shape=mxgraph.aws4.group;grIcon=mxgraph.aws4.group_ec2_instance_contents;strokeColor=#D86613;fillColor=none;verticalAlign=top;align=left;spacingLeft=30;fontColor=#D86613;dashed=0;labelBackgroundColor=none;fontFamily=Courier New;" vertex="1" parent="1">
          <mxGeometry x="751.5" y="420" width="168.5" height="170" as="geometry"/>
        </mxCell>
        <mxCell id="UEzPUAAOIrF-is8g5C7q-109" value="Client" style="outlineConnect=0;gradientColor=none;fontColor=#545B64;strokeColor=none;fillColor=#879196;dashed=0;verticalLabelPosition=bottom;verticalAlign=top;align=center;html=1;fontSize=12;fontStyle=1;aspect=fixed;shape=mxgraph.aws4.illustration_desktop;pointerEvents=1;labelBackgroundColor=#ffffff;" parent="1" vertex="1">
          <mxGeometry x="70" y="379" width="100" height="91" as="geometry"/>
        </mxCell>
        <mxCell id="UEzPUAAOIrF-is8g5C7q-114" value="&lt;b&gt;Amazon API Gateway&lt;/b&gt;&lt;br&gt;&lt;font face=&quot;Courier New&quot;&gt;tileserver.cyclemap.link&lt;/font&gt;" style="outlineConnect=0;fontColor=#232F3E;gradientColor=#945DF2;gradientDirection=north;fillColor=#5A30B5;strokeColor=#ffffff;dashed=0;verticalLabelPosition=bottom;verticalAlign=top;align=center;fontSize=12;fontStyle=0;aspect=fixed;shape=mxgraph.aws4.resourceIcon;resIcon=mxgraph.aws4.api_gateway;labelBackgroundColor=#ffffff;labelBorderColor=none;html=1;" parent="1" vertex="1">
          <mxGeometry x="420" y="470" width="78" height="78" as="geometry"/>
        </mxCell>
        <mxCell id="UEzPUAAOIrF-is8g5C7q-115" value="&lt;b&gt;Lambda&lt;/b&gt;&lt;br&gt;&lt;font face=&quot;Courier New&quot;&gt;tileserver&lt;/font&gt;" style="outlineConnect=0;fontColor=#232F3E;gradientColor=none;fillColor=#D05C17;strokeColor=none;dashed=0;verticalLabelPosition=bottom;verticalAlign=top;align=center;html=1;fontSize=12;fontStyle=0;aspect=fixed;pointerEvents=1;shape=mxgraph.aws4.lambda_function;labelBackgroundColor=none;" parent="1" vertex="1">
          <mxGeometry x="640.5" y="470" width="78" height="78" as="geometry"/>
        </mxCell>
        <mxCell id="R89aEMjabt8_ohJxdj---1" value="&lt;b&gt;Database&lt;/b&gt;&lt;br&gt;&lt;div&gt;&lt;font face=&quot;Courier New&quot;&gt;osmdata&lt;/font&gt;&lt;/div&gt;" style="outlineConnect=0;fontColor=#232F3E;gradientColor=none;fillColor=#3334B9;strokeColor=none;dashed=0;verticalLabelPosition=bottom;verticalAlign=top;align=center;html=1;fontSize=12;fontStyle=0;aspect=fixed;pointerEvents=1;shape=mxgraph.aws4.rds_postgresql_instance;labelBackgroundColor=none;" vertex="1" parent="1">
          <mxGeometry x="798" y="470" width="78" height="78" as="geometry"/>
        </mxCell>
        <mxCell id="R89aEMjabt8_ohJxdj---2" value="&lt;div&gt;&lt;b&gt;Amazon CloudFront&lt;/b&gt;&lt;/div&gt;&lt;div&gt;&lt;font face=&quot;Courier New&quot;&gt;tiles.cyclemap.link&lt;/font&gt;&lt;br&gt;&lt;/div&gt;" style="outlineConnect=0;fontColor=#232F3E;gradientColor=#945DF2;gradientDirection=north;fillColor=#5A30B5;strokeColor=#ffffff;dashed=0;verticalLabelPosition=bottom;verticalAlign=top;align=center;html=1;fontSize=12;fontStyle=0;aspect=fixed;shape=mxgraph.aws4.resourceIcon;resIcon=mxgraph.aws4.cloudfront;labelBackgroundColor=#ffffff;" vertex="1" parent="1">
          <mxGeometry x="260" y="250" width="78" height="78" as="geometry"/>
        </mxCell>
        <mxCell id="R89aEMjabt8_ohJxdj---23" value="&lt;b&gt;Amazon Route 53&lt;/b&gt;&lt;br&gt;&lt;font face=&quot;Courier New&quot;&gt;cyclemap.link&lt;/font&gt;" style="outlineConnect=0;fontColor=#232F3E;gradientColor=#945DF2;gradientDirection=north;fillColor=#5A30B5;strokeColor=#ffffff;dashed=0;verticalLabelPosition=bottom;verticalAlign=top;align=center;html=1;fontSize=12;fontStyle=0;aspect=fixed;shape=mxgraph.aws4.resourceIcon;resIcon=mxgraph.aws4.route_53;labelBackgroundColor=#ffffff;" vertex="1" parent="1">
          <mxGeometry x="260" y="370.3299999999999" width="78" height="78" as="geometry"/>
        </mxCell>
        <mxCell id="R89aEMjabt8_ohJxdj---27" value="" style="edgeStyle=orthogonalEdgeStyle;html=1;endArrow=block;elbow=vertical;startArrow=block;startFill=1;endFill=1;strokeColor=#545B64;rounded=0;fontFamily=Helvetica;fontColor=#000000;labelPosition=center;verticalLabelPosition=top;align=center;verticalAlign=bottom;" edge="1" parent="1" source="UEzPUAAOIrF-is8g5C7q-109" target="R89aEMjabt8_ohJxdj---23">
          <mxGeometry x="0.4899" width="100" relative="1" as="geometry">
            <mxPoint x="130" y="450" as="sourcePoint"/>
            <mxPoint x="240" y="430" as="targetPoint"/>
            <Array as="points">
              <mxPoint x="220" y="410"/>
              <mxPoint x="220" y="410"/>
            </Array>
            <mxPoint as="offset"/>
          </mxGeometry>
        </mxCell>
        <mxCell id="R89aEMjabt8_ohJxdj---28" value="" style="edgeStyle=orthogonalEdgeStyle;html=1;endArrow=block;elbow=vertical;startArrow=block;startFill=1;endFill=1;strokeColor=#545B64;rounded=0;fontFamily=Helvetica;fontColor=#000000;" edge="1" parent="1" source="UEzPUAAOIrF-is8g5C7q-109" target="R89aEMjabt8_ohJxdj---2">
          <mxGeometry width="100" relative="1" as="geometry">
            <mxPoint x="130" y="430" as="sourcePoint"/>
            <mxPoint x="150" y="680" as="targetPoint"/>
            <Array as="points">
              <mxPoint x="210" y="390"/>
              <mxPoint x="210" y="289"/>
            </Array>
          </mxGeometry>
        </mxCell>
        <mxCell id="R89aEMjabt8_ohJxdj---29" value="" style="edgeStyle=orthogonalEdgeStyle;html=1;endArrow=block;elbow=vertical;startArrow=block;startFill=1;endFill=1;strokeColor=#545B64;rounded=0;fontFamily=Helvetica;fontColor=#000000;" edge="1" parent="1" source="UEzPUAAOIrF-is8g5C7q-109" target="UEzPUAAOIrF-is8g5C7q-114">
          <mxGeometry width="100" relative="1" as="geometry">
            <mxPoint x="90" y="680" as="sourcePoint"/>
            <mxPoint x="190" y="680" as="targetPoint"/>
            <Array as="points">
              <mxPoint x="210" y="430"/>
              <mxPoint x="210" y="509"/>
            </Array>
          </mxGeometry>
        </mxCell>
        <mxCell id="R89aEMjabt8_ohJxdj---31" value="" style="edgeStyle=orthogonalEdgeStyle;html=1;endArrow=block;elbow=vertical;startArrow=block;startFill=1;endFill=1;strokeColor=#545B64;rounded=0;fontFamily=Helvetica;fontColor=#000000;" edge="1" parent="1" source="R89aEMjabt8_ohJxdj---2" target="R89aEMjabt8_ohJxdj---33">
          <mxGeometry width="100" relative="1" as="geometry">
            <mxPoint x="90" y="680" as="sourcePoint"/>
            <mxPoint x="640.0000000000002" y="229" as="targetPoint"/>
          </mxGeometry>
        </mxCell>
        <mxCell id="R89aEMjabt8_ohJxdj---32" value="" style="edgeStyle=orthogonalEdgeStyle;html=1;endArrow=block;elbow=vertical;startArrow=none;endFill=1;strokeColor=#545B64;rounded=0;fontFamily=Helvetica;fontColor=#000000;" edge="1" parent="1" source="UEzPUAAOIrF-is8g5C7q-115" target="R89aEMjabt8_ohJxdj---19">
          <mxGeometry width="100" relative="1" as="geometry">
            <mxPoint x="679" y="474.5" as="sourcePoint"/>
            <mxPoint x="678" y="404" as="targetPoint"/>
          </mxGeometry>
        </mxCell>
        <mxCell id="R89aEMjabt8_ohJxdj---19" value="S3-Endpoint&lt;font face=&quot;Courier New&quot;&gt;&lt;span style=&quot;font-weight: normal&quot;&gt;&lt;span id=&quot;serviceName&quot; class=&quot;&quot;&gt;&lt;br&gt;com.amazonaws.eu-central-1.s3&lt;/span&gt;&lt;span id=&quot;&quot; class=&quot;awsui-icon awsui-icon-small files-o GGDXUD2BAI &quot; style=&quot;cursor: pointer ; margin-left: 10px ; padding-top: 2px ; vertical-align: text-top ; height: 17px ; display: inline-block&quot;&gt;&lt;/span&gt;&lt;/span&gt;&lt;/font&gt;" style="outlineConnect=0;fontColor=#232F3E;gradientColor=none;fillColor=#5A30B5;strokeColor=none;dashed=0;verticalLabelPosition=middle;verticalAlign=middle;align=left;html=1;fontSize=12;fontStyle=1;aspect=fixed;pointerEvents=1;shape=mxgraph.aws4.endpoint;labelBackgroundColor=none;labelPosition=right;" vertex="1" parent="1">
          <mxGeometry x="661.5" y="350" width="36" height="36" as="geometry"/>
        </mxCell>
        <mxCell id="R89aEMjabt8_ohJxdj---34" value="" style="edgeStyle=orthogonalEdgeStyle;html=1;endArrow=block;elbow=vertical;startArrow=none;endFill=1;strokeColor=#545B64;rounded=0;fontFamily=Helvetica;fontColor=#000000;" edge="1" parent="1" source="R89aEMjabt8_ohJxdj---19" target="R89aEMjabt8_ohJxdj---33">
          <mxGeometry width="100" relative="1" as="geometry">
            <mxPoint x="687.9999999999999" y="442.54" as="sourcePoint"/>
            <mxPoint x="678" y="310" as="targetPoint"/>
          </mxGeometry>
        </mxCell>
        <mxCell id="R89aEMjabt8_ohJxdj---33" value="&lt;b&gt;Amazon S3&lt;/b&gt;&lt;br&gt;&lt;div&gt;&lt;font face=&quot;Courier New&quot;&gt;tiles.cyclemap.link&lt;/font&gt;&lt;br&gt;&lt;/div&gt;" style="outlineConnect=0;fontColor=#232F3E;gradientColor=none;fillColor=#277116;strokeColor=none;dashed=0;verticalLabelPosition=middle;verticalAlign=middle;align=left;html=1;fontSize=12;fontStyle=0;aspect=fixed;pointerEvents=1;shape=mxgraph.aws4.bucket_with_objects;labelBackgroundColor=#ffffff;labelPosition=right;" vertex="1" parent="1">
          <mxGeometry x="642" y="250" width="75" height="78" as="geometry"/>
        </mxCell>
        <mxCell id="R89aEMjabt8_ohJxdj---36" value="" style="edgeStyle=orthogonalEdgeStyle;html=1;endArrow=block;elbow=vertical;startArrow=block;startFill=1;endFill=1;strokeColor=#545B64;rounded=0;fontFamily=Helvetica;fontColor=#000000;" edge="1" parent="1" source="R89aEMjabt8_ohJxdj---39" target="UEzPUAAOIrF-is8g5C7q-115">
          <mxGeometry width="100" relative="1" as="geometry">
            <mxPoint x="30" y="717.46" as="sourcePoint"/>
            <mxPoint x="190" y="717.46" as="targetPoint"/>
          </mxGeometry>
        </mxCell>
        <mxCell id="R89aEMjabt8_ohJxdj---37" value="" style="edgeStyle=orthogonalEdgeStyle;html=1;endArrow=block;elbow=vertical;startArrow=block;startFill=1;endFill=1;strokeColor=#545B64;rounded=0;fontFamily=Helvetica;fontColor=#000000;" edge="1" parent="1" source="UEzPUAAOIrF-is8g5C7q-115" target="R89aEMjabt8_ohJxdj---1">
          <mxGeometry width="100" relative="1" as="geometry">
            <mxPoint x="547.0000000000002" y="519.0000000000001" as="sourcePoint"/>
            <mxPoint x="649" y="519.0000000000001" as="targetPoint"/>
          </mxGeometry>
        </mxCell>
        <mxCell id="R89aEMjabt8_ohJxdj---39" value="" style="outlineConnect=0;fontColor=#232F3E;gradientColor=none;fillColor=#5A30B5;strokeColor=none;dashed=0;verticalLabelPosition=bottom;verticalAlign=top;align=center;html=1;fontSize=12;fontStyle=0;aspect=fixed;pointerEvents=1;shape=mxgraph.aws4.internet_gateway;labelBackgroundColor=#ffffff;" vertex="1" parent="1">
          <mxGeometry x="550" y="492.63" width="32.75" height="32.75" as="geometry"/>
        </mxCell>
        <mxCell id="R89aEMjabt8_ohJxdj---40" value="" style="edgeStyle=orthogonalEdgeStyle;html=1;endArrow=block;elbow=vertical;startArrow=block;startFill=1;endFill=1;strokeColor=#545B64;rounded=0;fontFamily=Helvetica;fontColor=#000000;" edge="1" parent="1" source="UEzPUAAOIrF-is8g5C7q-114" target="R89aEMjabt8_ohJxdj---39">
          <mxGeometry width="100" relative="1" as="geometry">
            <mxPoint x="592.75" y="519.005" as="sourcePoint"/>
            <mxPoint x="649" y="519.005" as="targetPoint"/>
          </mxGeometry>
        </mxCell>
      </root>
    </mxGraphModel>
  </diagram>
</mxfile>
